<svg width="15" height="15" viewBox="0 0 15 15" fill="none" xmlns="http://www.w3.org/2000/svg">
<path d="M1.64566 4.87388H6.16518C7.23495 4.87388 8.10212 4.00668 8.10212 2.93694C8.10212 1.8672 7.23495 1 6.16518 1C5.09544 1 4.22824 1.8672 4.22824 2.93694" stroke="white" stroke-width="1.29129" stroke-linecap="round" stroke-linejoin="round"/>
<path d="M2.29129 10.039H9.3934C10.4632 10.039 11.3303 10.9062 11.3303 11.976C11.3303 13.0457 10.4632 13.9129 9.3934 13.9129C8.32362 13.9129 7.45646 13.0457 7.45646 11.976" stroke="white" stroke-width="1.29129" stroke-linecap="round" stroke-linejoin="round"/>
<path d="M1 7.45646H11.976C13.0458 7.45646 13.9129 6.58929 13.9129 5.51952C13.9129 4.44978 13.0458 3.58258 11.976 3.58258C10.9062 3.58258 10.039 4.44978 10.039 5.51952" stroke="white" stroke-width="1.29129" stroke-linecap="round" stroke-linejoin="round"/>
</svg>
