<svg width="30" height="28" viewBox="0 0 30 28" fill="none" xmlns="http://www.w3.org/2000/svg">
<path d="M29.1081 1.84324V12.2432H1V1.84324C1 1.37753 1.37753 1 1.84324 1H28.2649C28.7306 1 29.1081 1.37753 29.1081 1.84324Z" stroke="white" stroke-width="1.16033" stroke-linecap="round" stroke-linejoin="round"/>
<path d="M23.4864 6.62164H24.8919" stroke="white" stroke-width="1.16033" stroke-linecap="round" stroke-linejoin="round"/>
<path d="M1 12.2432L2.10983 15.8754C2.47101 17.0574 3.56197 17.8648 4.79795 17.8648H6.62162" stroke="white" stroke-width="1.16033" stroke-linecap="round" stroke-linejoin="round"/>
<path d="M29.1081 12.2432L27.9982 15.8754C27.637 17.0574 26.5462 17.8648 25.3101 17.8648H23.4864" stroke="white" stroke-width="1.16033" stroke-linecap="round" stroke-linejoin="round"/>
<path d="M11.5406 17.1622C11.5406 17.1622 11.5406 27 6.62164 27" stroke="white" stroke-width="1.16033" stroke-linecap="round" stroke-linejoin="round"/>
<path d="M18.5675 17.1622C18.5675 17.1622 18.5675 27 23.4864 27" stroke="white" stroke-width="1.16033" stroke-linecap="round" stroke-linejoin="round"/>
<path d="M15.0541 17.1622V27" stroke="white" stroke-width="1.16033" stroke-linecap="round" stroke-linejoin="round"/>
</svg>
