<svg width="22" height="33" viewBox="0 0 22 33" fill="none" xmlns="http://www.w3.org/2000/svg">
<path d="M5.99991 31.5H15.9997M10.9998 1.5C5.47707 1.5 1 5.97715 1 11.5C1 13.5242 1.60139 15.4079 2.63525 16.9822C4.22507 19.403 5.01927 20.6127 5.12246 20.7935C6.04038 22.4017 5.87137 21.8345 5.98689 23.6826C5.99988 23.8904 5.99991 24.2048 5.99991 24.8333C5.99991 25.7538 6.74609 26.5 7.66655 26.5L14.3331 26.5C15.2536 26.5 15.9997 25.7538 15.9997 24.8333C15.9997 24.2048 15.9997 23.8904 16.0127 23.6826C16.1282 21.8345 15.9583 22.4017 16.8762 20.7935C16.9794 20.6127 17.7749 19.403 19.3648 16.9822C20.3986 15.4079 21 13.5242 21 11.5C21 5.97715 16.5226 1.5 10.9998 1.5Z" stroke="white" stroke-width="2" stroke-linecap="round" stroke-linejoin="round"/>
</svg>
