<svg width="20" height="30" viewBox="0 0 20 30" fill="none" xmlns="http://www.w3.org/2000/svg">
<path d="M18 0H2C1.46975 0.000595527 0.961388 0.2115 0.586444 0.586444C0.211501 0.961388 0.000595527 1.46975 0 2V28C0.000595527 28.5302 0.211501 29.0386 0.586444 29.4136C0.961388 29.7885 1.46975 29.9994 2 30H18C18.5303 29.9994 19.0386 29.7885 19.4136 29.4136C19.7885 29.0386 19.9994 28.5302 20 28V2C19.9994 1.46975 19.7885 0.961388 19.4136 0.586444C19.0386 0.2115 18.5303 0.000595527 18 0ZM18 28H2V2H18L18.0013 28H18Z" fill="white"/>
<path d="M10 14C8.81333 14 7.65329 14.3519 6.6666 15.0112C5.6799 15.6705 4.91087 16.6075 4.45674 17.7039C4.00261 18.8003 3.88379 20.0067 4.11531 21.1705C4.34682 22.3344 4.91826 23.4035 5.75738 24.2426C6.59649 25.0818 7.66559 25.6532 8.82948 25.8847C9.99336 26.1162 11.1998 25.9974 12.2961 25.5433C13.3925 25.0892 14.3295 24.3201 14.9888 23.3334C15.6481 22.3467 16 21.1867 16 20C15.9982 18.4092 15.3655 16.8842 14.2407 15.7593C13.1159 14.6345 11.5908 14.0018 10 14ZM10 24C9.20889 24 8.43553 23.7654 7.77774 23.3259C7.11994 22.8864 6.60725 22.2616 6.3045 21.5307C6.00175 20.7998 5.92254 19.9956 6.07688 19.2196C6.23122 18.4437 6.61218 17.731 7.17159 17.1716C7.731 16.6122 8.44373 16.2312 9.21966 16.0769C9.99558 15.9225 10.7998 16.0017 11.5308 16.3045C12.2617 16.6072 12.8864 17.1199 13.3259 17.7777C13.7654 18.4355 14 19.2089 14 20C13.9988 21.0605 13.577 22.0772 12.8271 22.8271C12.0772 23.577 11.0605 23.9988 10 24Z" fill="white"/>
<path d="M10 11.5C10.7911 11.5 11.5645 11.2654 12.2223 10.8259C12.8801 10.3864 13.3928 9.76164 13.6955 9.03074C13.9983 8.29983 14.0775 7.49556 13.9232 6.71964C13.7688 5.94372 13.3879 5.23098 12.8284 4.67157C12.269 4.11216 11.5563 3.7312 10.7804 3.57686C10.0045 3.42252 9.20019 3.50173 8.46929 3.80448C7.73838 4.10723 7.11367 4.61992 6.67414 5.27772C6.23462 5.93552 6.00002 6.70888 6.00002 7.5C6.00121 8.5605 6.42302 9.57723 7.17291 10.3271C7.9228 11.077 8.93952 11.4988 10 11.5ZM10 5.5C10.3956 5.5 10.7823 5.6173 11.1112 5.83706C11.4401 6.05683 11.6964 6.36918 11.8478 6.73463C11.9992 7.10009 12.0388 7.50222 11.9616 7.89018C11.8844 8.27814 11.6939 8.63451 11.4142 8.91422C11.1345 9.19392 10.7782 9.3844 10.3902 9.46157C10.0022 9.53874 9.60011 9.49914 9.23466 9.34776C8.8692 9.19639 8.55685 8.94004 8.33708 8.61114C8.11732 8.28224 8.00002 7.89556 8.00002 7.5C8.00062 6.96975 8.21152 6.46139 8.58647 6.08645C8.96141 5.7115 9.46977 5.5006 10 5.5Z" fill="white"/>
<path d="M11 19H9.00004V21H11V19Z" fill="white"/>
</svg>
