<svg width="40" height="56" viewBox="0 0 40 56" fill="none" xmlns="http://www.w3.org/2000/svg">
<path d="M18.25 32.3447H16.625C16.625 32.972 16.9861 33.5433 17.5527 33.8124L18.25 32.3447ZM8.5 32.3447L9.19728 33.8124C9.76391 33.5433 10.125 32.972 10.125 32.3447H8.5ZM16.625 6.875V32.3447H19.875V6.875H16.625ZM13.375 3.625C15.1699 3.625 16.625 5.08007 16.625 6.875H19.875C19.875 3.28515 16.9649 0.375 13.375 0.375V3.625ZM10.125 6.875C10.125 5.08007 11.5801 3.625 13.375 3.625V0.375C9.78515 0.375 6.875 3.28515 6.875 6.875H10.125ZM10.125 32.3447V6.875H6.875V32.3447H10.125ZM3.625 42.625C3.625 38.738 5.89947 35.3791 9.19728 33.8124L7.80272 30.8769C3.41445 32.9615 0.375 37.4367 0.375 42.625H3.625ZM13.375 52.375C7.99022 52.375 3.625 48.0098 3.625 42.625H0.375C0.375 49.8047 6.1953 55.625 13.375 55.625V52.375ZM23.125 42.625C23.125 48.0098 18.7598 52.375 13.375 52.375V55.625C20.5547 55.625 26.375 49.8047 26.375 42.625H23.125ZM17.5527 33.8124C20.8505 35.3791 23.125 38.738 23.125 42.625H26.375C26.375 37.4367 23.3355 32.9615 18.9473 30.8769L17.5527 33.8124Z" fill="#222222"/>
<path d="M13.375 44.25V37.75" stroke="#222222" stroke-width="3.25" stroke-linecap="round" stroke-linejoin="round"/>
<path d="M24.75 28H31.25" stroke="#222222" stroke-width="3.25" stroke-linecap="round" stroke-linejoin="round"/>
<path d="M24.75 21.5H31.25" stroke="#222222" stroke-width="3.25" stroke-linecap="round" stroke-linejoin="round"/>
<path d="M24.75 15H31.25" stroke="#222222" stroke-width="3.25" stroke-linecap="round" stroke-linejoin="round"/>
<path d="M24.75 8.5H37.75" stroke="#222222" stroke-width="3.25" stroke-linecap="round" stroke-linejoin="round"/>
</svg>
